<svg width="18.472168" height="15.833984" viewBox="0 0 18.4722 15.834" fill="none" xmlns="http://www.w3.org/2000/svg" xmlns:xlink="http://www.w3.org/1999/xlink">
	<desc>
			Created with Pixso.
	</desc>
	<defs/>
	<path id="Vector" d="M0.65 15.83C0.48 15.83 0.31 15.76 0.19 15.64C0.06 15.51 0 15.34 0 15.17L0 0.66C0 0.48 0.06 0.31 0.19 0.19C0.31 0.07 0.48 0 0.65 0L17.81 0C17.98 0 18.15 0.07 18.27 0.19C18.4 0.31 18.47 0.48 18.47 0.66L18.47 15.17C18.47 15.34 18.4 15.51 18.27 15.64C18.15 15.76 17.98 15.83 17.81 15.83L0.65 15.83ZM7.16 11.12L5.74 9.7C5.61 9.57 5.45 9.5 5.27 9.5C5.1 9.5 4.93 9.57 4.81 9.7L1.31 13.19L17.37 13.19L12.38 7.2C12.31 7.13 12.24 7.07 12.15 7.02C12.06 6.98 11.97 6.96 11.87 6.96C11.77 6.96 11.68 6.98 11.59 7.02C11.5 7.07 11.42 7.13 11.36 7.2L8.13 11.08C8.07 11.15 8 11.2 7.92 11.24C7.84 11.28 7.75 11.31 7.66 11.31C7.56 11.32 7.47 11.3 7.39 11.27C7.3 11.23 7.22 11.18 7.16 11.12ZM3.95 5.27C3.95 5.53 4 5.79 4.1 6.03C4.2 6.27 4.35 6.49 4.53 6.67C4.72 6.86 4.94 7 5.18 7.1C5.42 7.2 5.67 7.25 5.93 7.25C6.19 7.25 6.45 7.2 6.69 7.1C6.93 7 7.15 6.86 7.33 6.67C7.52 6.49 7.66 6.27 7.76 6.03C7.86 5.79 7.91 5.53 7.91 5.27C7.91 4.75 7.7 4.24 7.33 3.87C6.96 3.5 6.46 3.29 5.93 3.29C5.41 3.29 4.9 3.5 4.53 3.87C4.16 4.25 3.95 4.75 3.95 5.27Z" fill="#252525" fill-opacity="1.000000" fill-rule="nonzero"/>
</svg>
