<svg width="15.833984" height="15.833984" viewBox="0 0 15.834 15.834" fill="none" xmlns="http://www.w3.org/2000/svg" xmlns:xlink="http://www.w3.org/1999/xlink">
	<desc>
			Created with Pixso.
	</desc>
	<defs/>
	<path id="Vector" d="M7.91 0C3.54 0 0 3.54 0 7.91C0 12.28 3.54 15.83 7.91 15.83C12.28 15.83 15.83 12.28 15.83 7.91C15.83 3.54 12.28 0 7.91 0ZM9.3 11.55C8.98 11.9 8.8 12.11 8.45 12.44C7.93 12.94 7.33 13.08 6.87 12.58C6.21 11.87 6.91 9.71 6.92 9.63C7.05 9.06 7.3 7.91 7.3 7.91C7.3 7.91 6.76 8.24 6.44 8.36C6.2 8.44 5.94 8.33 5.87 8.1C5.81 7.89 5.86 7.76 5.99 7.61C6.31 7.26 6.49 7.05 6.84 6.72C7.36 6.21 7.95 6.08 8.42 6.58C9.08 7.28 8.59 8.45 8.42 9.28C8.4 9.36 7.99 11.25 7.99 11.25C7.99 11.25 8.53 10.92 8.85 10.8C9.09 10.72 9.35 10.83 9.42 11.06C9.48 11.27 9.43 11.4 9.3 11.55ZM8.44 5.44C7.7 5.51 7.05 4.96 6.99 4.22C6.92 3.48 7.47 2.83 8.21 2.77C8.95 2.7 9.6 3.25 9.66 3.99C9.73 4.73 9.18 5.38 8.44 5.44Z" fill="#252525" fill-opacity="1.000000" fill-rule="nonzero"/>
</svg>
