<svg width="15.833496" height="15.833984" viewBox="0 0 15.8335 15.834" fill="none" xmlns="http://www.w3.org/2000/svg" xmlns:xlink="http://www.w3.org/1999/xlink">

	<defs/>
	<path id="Vector" d="M15.83 7.91C15.83 12.28 12.28 15.83 7.91 15.83C3.54 15.83 0 12.28 0 7.91C0 3.54 3.54 0 7.91 0C12.28 0 15.83 3.54 15.83 7.91ZM10.29 5.54C10.29 6.85 9.22 7.91 7.91 7.91C6.6 7.91 5.54 6.85 5.54 5.54C5.54 4.23 6.6 3.16 7.91 3.16C9.22 3.16 10.29 4.23 10.29 5.54ZM7.91 14.64C9.32 14.64 10.63 14.21 11.72 13.46C12.2 13.13 12.4 12.51 12.12 12C11.55 10.94 10.36 10.29 7.91 10.29C5.47 10.29 4.28 10.94 3.7 12C3.42 12.51 3.63 13.13 4.11 13.46C5.19 14.21 6.5 14.64 7.91 14.64Z" fill="#252525" fill-opacity="1.000000" fill-rule="evenodd"/>
</svg>
