<svg width="16.812012" height="15.833984" viewBox="0 0 16.812 15.834" fill="none" xmlns="http://www.w3.org/2000/svg" xmlns:xlink="http://www.w3.org/1999/xlink">
	<defs/>
	<path id="Vector" d="M16.11 15.27C16.24 15.27 16.37 15.21 16.45 15.11C16.54 15 16.57 14.86 16.55 14.73L16.26 13.39C16.42 13.24 16.52 13.02 16.52 12.77C16.52 12.52 16.41 12.29 16.23 12.14L16.23 7.48L15.1 8.18L15.1 12.14C14.92 12.29 14.81 12.52 14.81 12.77C14.81 13.02 14.91 13.24 15.07 13.39L14.79 14.73C14.76 14.86 14.79 15 14.88 15.11C14.97 15.21 15.09 15.27 15.23 15.27L16.11 15.27ZM16.49 4.77L9.1 0.19C8.89 0.06 8.64 0 8.4 0C8.16 0 7.91 0.06 7.7 0.19L0.31 4.77C0.11 4.89 0 5.1 0 5.34C0 5.57 0.11 5.78 0.31 5.91L7.7 10.48C7.91 10.61 8.16 10.68 8.4 10.68C8.64 10.68 8.89 10.61 9.1 10.48L16.49 5.91C16.69 5.78 16.81 5.57 16.81 5.34C16.81 5.1 16.69 4.89 16.49 4.77ZM8.4 11.81C7.94 11.81 7.49 11.69 7.1 11.44L2.79 8.78L2.79 13.37C2.79 14.73 5.3 15.83 8.4 15.83C11.5 15.83 14.01 14.73 14.01 13.37L14.01 8.78L9.7 11.44C9.31 11.69 8.86 11.81 8.4 11.81Z" fill="#252525" fill-opacity="1.000000" fill-rule="nonzero"/>
</svg>
