<svg width="19.090820" height="15.833984" viewBox="0 0 19.0908 15.834" fill="none" xmlns="http://www.w3.org/2000/svg" xmlns:xlink="http://www.w3.org/1999/xlink">
	<defs/>
	<path id="Vector" d="M17.18 2.87L12.19 2.87L12.19 1.08C12.19 0.41 11.6 0 10.88 0C10.88 0 8.11 0 8.13 0C7.42 0 6.81 0.41 6.81 1.08L6.81 2.95L1.9 2.95C0.91 2.95 0 3.79 0 4.89C0 4.92 0 13.8 0 13.8C0 15.03 0.92 15.83 1.89 15.83L17.19 15.83C18.16 15.83 19.09 15.1 19.09 13.85C19.09 13.85 19.09 4.88 19.09 4.84C19.08 3.72 18.16 2.87 17.18 2.87ZM7.8 1.06L11.21 1.06L11.21 2.95L7.8 2.95L7.8 1.06ZM9.54 13.18C7.41 13.18 5.68 11.45 5.68 9.32C5.68 7.19 7.41 5.46 9.54 5.46C11.67 5.46 13.4 7.19 13.4 9.32C13.4 11.45 11.67 13.18 9.54 13.18ZM12.01 8.65L10.78 9.85L11.07 11.55L9.54 10.75L8.02 11.55L8.31 9.85L7.07 8.65L8.78 8.4L9.54 6.85L10.3 8.4L12.01 8.65Z" fill="#252525" fill-opacity="1.000000" fill-rule="nonzero"/>
</svg>
