<svg width="17.632324" height="11.281250" viewBox="0 0 17.6323 11.2812" fill="none" xmlns="http://www.w3.org/2000/svg" xmlns:xlink="http://www.w3.org/1999/xlink">
	<desc>
			Created with Pixso.
	</desc>
	<defs/>
	<path id="Vector" d="M17.63 2.91L17.63 2.01C17.63 2.01 15.82 1.82 13.63 2.66C11.45 3.51 9.86 3.29 9.64 3.07C9.42 2.85 8.42 1.88 8.27 1.76C8.11 1.63 7.8 1.13 7.45 1.45C7.39 1.5 7.33 1.53 7.27 1.56L7.61 0.84C7.67 0.72 7.79 0.65 7.92 0.65L9.79 0.65C9.97 0.65 9.96 0.5 9.96 0.32C9.96 0.14 9.97 0 9.79 0L7.92 0C7.54 0 7.19 0.21 7.02 0.55L6.59 1.44C6.41 1.3 5.71 0.81 4.69 0.76L4.69 2.94C4.69 2.94 5.44 2.88 5.9 2.8L5.37 3.69C4.64 3.28 3.79 3.07 2.89 3.14C2.2 3.19 1.56 3.4 1 3.72L1.21 4.34C1.67 4.1 2.18 3.95 2.72 3.91C3.62 3.85 4.36 3.99 4.99 4.33L4.39 5.35C3.99 5.17 3.56 5.07 3.1 5.07C1.39 5.07 0 6.46 0 8.17C0 9.89 1.39 11.28 3.1 11.28C4.81 11.28 6.21 9.89 6.21 8.17C6.21 7.18 5.74 6.31 5.03 5.74L5.6 4.77C6.18 5.3 6.63 6.08 6.99 7.11C7 7.15 7.41 7.5 7.41 7.53L7.46 7.42C7.51 8.42 8.3 8.44 8.3 8.44C8.3 8.44 10.32 8.44 11.23 8.44C12.35 4.16 16.88 3.13 17.63 2.91ZM4.96 8.17C4.96 9.2 4.13 10.03 3.1 10.03C2.07 10.03 1.24 9.2 1.24 8.17C1.24 7.15 2.07 6.32 3.1 6.32C3.33 6.32 3.54 6.36 3.74 6.43L3.09 7.53C2.74 7.54 2.46 7.82 2.46 8.17C2.46 8.52 2.75 8.81 3.1 8.81C3.45 8.81 3.74 8.52 3.74 8.17C3.74 8.1 3.72 8.03 3.7 7.97L4.38 6.83C4.73 7.17 4.96 7.64 4.96 8.17ZM5.99 4.11L6.47 3.3C6.69 3.84 6.93 4.7 7.13 5.5C6.84 4.96 6.46 4.49 5.99 4.11Z" fill="#252525" fill-opacity="1.000000" fill-rule="nonzero"/>
</svg>
