<svg width="15.833496" height="15.833984" viewBox="0 0 15.8335 15.834" fill="none" xmlns="http://www.w3.org/2000/svg" xmlns:xlink="http://www.w3.org/1999/xlink">
	<desc>
			Created with Pixso.
	</desc>
	<defs/>
	<path id="comment-3" d="M11.87 7.91C11.32 7.91 10.88 7.47 10.88 6.92C10.88 6.38 11.32 5.93 11.87 5.93C12.42 5.93 12.86 6.38 12.86 6.92C12.86 7.47 12.42 7.91 11.87 7.91ZM7.91 7.91C7.37 7.91 6.92 7.47 6.92 6.92C6.92 6.38 7.37 5.93 7.91 5.93C8.46 5.93 8.9 6.38 8.9 6.92C8.9 7.47 8.46 7.91 7.91 7.91ZM3.95 7.91C3.41 7.91 2.96 7.47 2.96 6.92C2.96 6.38 3.41 5.93 3.95 5.93C4.5 5.93 4.94 6.38 4.94 6.92C4.94 7.47 4.5 7.91 3.95 7.91ZM7.91 0C3.54 0 0 3.1 0 6.92C0 9.11 1.16 11.06 2.96 12.33L2.96 15.83L6.43 13.72C6.91 13.8 7.41 13.85 7.91 13.85C12.28 13.85 15.83 10.75 15.83 6.92C15.83 3.1 12.28 0 7.91 0Z" fill="#252525" fill-opacity="1.000000" fill-rule="evenodd"/>
</svg>
