<svg width="19.791504" height="15.833984" viewBox="0 0 19.7915 15.834" fill="none" xmlns="http://www.w3.org/2000/svg" xmlns:xlink="http://www.w3.org/1999/xlink">
	<desc>
			Created with Pixso.
	</desc>
	<defs/>
	<path id="Vector" d="M18.8 0L4.94 0C4.68 0 4.43 0.1 4.24 0.28C4.06 0.47 3.95 0.72 3.95 0.99L3.95 3.95L8.9 3.95L8.9 1.97L14.84 1.97L14.84 11.87L18.8 11.87C19.06 11.87 19.31 11.77 19.5 11.58C19.68 11.4 19.79 11.14 19.79 10.88L19.79 0.99C19.79 0.72 19.68 0.47 19.5 0.28C19.31 0.1 19.06 0 18.8 0ZM7.17 3.18C7.17 3.25 7.14 3.33 7.09 3.38C7.04 3.43 6.97 3.46 6.89 3.46L5.96 3.46C5.89 3.46 5.82 3.43 5.77 3.38C5.71 3.33 5.68 3.25 5.68 3.18L5.68 2.25C5.68 2.18 5.71 2.11 5.77 2.06C5.82 2 5.89 1.97 5.96 1.97L6.89 1.97C6.97 1.97 7.04 2 7.09 2.06C7.14 2.11 7.17 2.18 7.17 2.25L7.17 3.18ZM18.06 9.61C18.06 9.69 18.03 9.76 17.97 9.81C17.92 9.86 17.85 9.89 17.78 9.89L16.85 9.89C16.77 9.89 16.7 9.86 16.65 9.81C16.6 9.76 16.57 9.69 16.57 9.61L16.57 8.68C16.57 8.61 16.6 8.54 16.65 8.49C16.7 8.44 16.77 8.41 16.85 8.41L17.78 8.41C17.85 8.41 17.92 8.44 17.97 8.49C18.03 8.54 18.06 8.61 18.06 8.68L18.06 9.61ZM18.06 6.4C18.06 6.47 18.03 6.54 17.97 6.59C17.92 6.65 17.85 6.67 17.78 6.67L16.85 6.67C16.77 6.67 16.7 6.65 16.65 6.59C16.6 6.54 16.57 6.47 16.57 6.4L16.57 5.47C16.57 5.4 16.6 5.32 16.65 5.27C16.7 5.22 16.77 5.19 16.85 5.19L17.78 5.19C17.85 5.19 17.92 5.22 17.97 5.27C18.03 5.32 18.06 5.4 18.06 5.47L18.06 6.4ZM18.06 3.18C18.06 3.25 18.03 3.33 17.97 3.38C17.92 3.43 17.85 3.46 17.78 3.46L16.85 3.46C16.77 3.46 16.7 3.43 16.65 3.38C16.6 3.33 16.57 3.25 16.57 3.18L16.57 2.25C16.57 2.18 16.6 2.11 16.65 2.06C16.7 2 16.77 1.97 16.85 1.97L17.78 1.97C17.85 1.97 17.92 2 17.97 2.06C18.03 2.11 18.06 2.18 18.06 2.25L18.06 3.18ZM12.86 4.94L0.98 4.94C0.72 4.94 0.47 5.05 0.29 5.23C0.1 5.42 0 5.67 0 5.93L0 14.84C0 15.1 0.1 15.35 0.29 15.54C0.47 15.72 0.72 15.83 0.98 15.83L12.86 15.83C13.12 15.83 13.37 15.72 13.56 15.54C13.75 15.35 13.85 15.1 13.85 14.84L13.85 5.93C13.85 5.67 13.75 5.42 13.56 5.23C13.37 5.05 13.12 4.94 12.86 4.94ZM2.96 6.92C3.16 6.92 3.35 6.98 3.51 7.09C3.68 7.2 3.8 7.35 3.88 7.53C3.95 7.71 3.97 7.91 3.93 8.1C3.9 8.3 3.8 8.47 3.66 8.61C3.53 8.75 3.35 8.84 3.16 8.88C2.96 8.92 2.77 8.9 2.58 8.83C2.4 8.75 2.25 8.62 2.14 8.46C2.03 8.3 1.97 8.11 1.97 7.91C1.97 7.65 2.08 7.4 2.26 7.21C2.45 7.03 2.7 6.92 2.96 6.92ZM11.87 13.85L1.97 13.85L1.97 12.86L3.95 10.88L4.94 11.87L8.9 7.91L11.87 10.88L11.87 13.85Z" fill="#252525" fill-opacity="1.000000" fill-rule="nonzero"/>
</svg>
