<svg width="16.137695" height="15.833984" viewBox="0 0 16.1377 15.834" fill="none" xmlns="http://www.w3.org/2000/svg" xmlns:xlink="http://www.w3.org/1999/xlink">
	<desc>
			Created with Pixso.
	</desc>
	<defs/>
	<path id="Vector" d="M8.4 0.2L8.4 4.21C9.42 4.17 10.41 3.93 11.31 3.51C10.65 1.68 9.59 0.41 8.4 0.2Z" fill="#252525" fill-opacity="1.000000" fill-rule="nonzero"/>
	<path id="Vector" d="M2.6 1.97C3.08 2.45 3.62 2.85 4.19 3.18C4.73 1.72 5.52 0.6 6.46 0C4.99 0.29 3.66 0.99 2.6 1.97Z" fill="#252525" fill-opacity="1.000000" fill-rule="nonzero"/>
	<path id="Vector" d="M9.67 0C10.61 0.6 11.4 1.72 11.94 3.18C12.51 2.85 13.05 2.45 13.53 1.97C12.47 0.99 11.14 0.29 9.67 0Z" fill="#252525" fill-opacity="1.000000" fill-rule="nonzero"/>
	<path id="Vector" d="M4.08 8.25C4.11 9.47 4.3 10.62 4.59 11.64C5.57 11.2 6.63 10.95 7.73 10.91L7.73 8.25L4.08 8.25Z" fill="#252525" fill-opacity="1.000000" fill-rule="nonzero"/>
	<path id="Vector" d="M4.81 12.29C5.47 14.13 6.53 15.41 7.73 15.62L7.73 11.59C6.7 11.63 5.71 11.87 4.81 12.29Z" fill="#252525" fill-opacity="1.000000" fill-rule="nonzero"/>
	<path id="Vector" d="M14.01 2.44C13.45 3 12.83 3.47 12.16 3.84C12.49 4.95 12.69 6.22 12.71 7.58L16.13 7.58C16.05 5.6 15.26 3.81 14.01 2.44Z" fill="#252525" fill-opacity="1.000000" fill-rule="nonzero"/>
	<path id="Vector" d="M2.12 2.44C0.87 3.81 0.08 5.6 0 7.58L3.41 7.58C3.44 6.22 3.64 4.95 3.97 3.84C3.3 3.47 2.68 3 2.12 2.44Z" fill="#252525" fill-opacity="1.000000" fill-rule="nonzero"/>
	<path id="Vector" d="M4.6 4.16C4.3 5.18 4.11 6.35 4.09 7.57L7.73 7.57L7.73 4.89C6.63 4.85 5.57 4.6 4.6 4.16Z" fill="#252525" fill-opacity="1.000000" fill-rule="nonzero"/>
	<path id="Vector" d="M4.81 3.51C5.72 3.93 6.7 4.17 7.73 4.21L7.73 0.2C6.54 0.41 5.48 1.68 4.81 3.51Z" fill="#252525" fill-opacity="1.000000" fill-rule="nonzero"/>
	<path id="Vector" d="M3.41 8.25L0 8.25C0.08 10.22 0.86 12.01 2.11 13.37C2.67 12.81 3.29 12.34 3.96 11.96C3.64 10.86 3.44 9.6 3.41 8.25Z" fill="#252525" fill-opacity="1.000000" fill-rule="nonzero"/>
	<path id="Vector" d="M12.72 8.25C12.69 9.6 12.49 10.86 12.16 11.96C12.83 12.34 13.46 12.81 14.01 13.36L14.02 13.37C15.27 12.01 16.05 10.22 16.13 8.25L12.72 8.25Z" fill="#252525" fill-opacity="1.000000" fill-rule="nonzero"/>
	<path id="Vector" d="M13.54 13.84C13.06 13.36 12.52 12.96 11.94 12.62C11.4 14.09 10.61 15.22 9.67 15.83C11.15 15.53 12.48 14.83 13.54 13.85L13.54 13.84Z" fill="#252525" fill-opacity="1.000000" fill-rule="nonzero"/>
	<path id="Vector" d="M11.53 4.16C10.55 4.6 9.49 4.85 8.4 4.89L8.4 7.57L12.04 7.57C12.01 6.35 11.83 5.18 11.53 4.16Z" fill="#252525" fill-opacity="1.000000" fill-rule="nonzero"/>
	<path id="Vector" d="M4.18 12.62C3.61 12.96 3.07 13.36 2.59 13.84C3.65 14.83 4.98 15.53 6.46 15.83C5.52 15.22 4.72 14.09 4.18 12.62Z" fill="#252525" fill-opacity="1.000000" fill-rule="nonzero"/>
	<path id="Vector" d="M8.4 11.59L8.4 15.62C9.59 15.41 10.66 14.13 11.32 12.29C10.41 11.87 9.43 11.63 8.4 11.59Z" fill="#252525" fill-opacity="1.000000" fill-rule="nonzero"/>
	<path id="Vector" d="M8.4 8.25L8.4 10.91C9.5 10.95 10.56 11.2 11.53 11.65C11.83 10.62 12.01 9.47 12.04 8.25L8.4 8.25Z" fill="#252525" fill-opacity="1.000000" fill-rule="nonzero"/>
</svg>
