<svg width="17.775391" height="17.746094" viewBox="0 0 17.7754 17.7461" fill="none" xmlns="http://www.w3.org/2000/svg" xmlns:xlink="http://www.w3.org/1999/xlink">
	<desc>
			Created with Pixso.
	</desc>
	<defs/>
	<path id="Vector" d="M8.63 12.01C7.88 12.76 5.66 13.1 5.16 12.61C4.66 12.11 5 9.89 5.75 9.14L13.28 1.61C13.47 1.41 13.69 1.25 13.94 1.13C14.19 1.02 14.46 0.96 14.74 0.95C15.01 0.95 15.28 1 15.54 1.1C15.79 1.2 16.02 1.35 16.22 1.55C16.41 1.75 16.57 1.98 16.67 2.23C16.77 2.49 16.82 2.76 16.81 3.03C16.81 3.31 16.74 3.58 16.63 3.83C16.52 4.08 16.35 4.3 16.15 4.49L8.63 12.01Z" stroke="#737373" stroke-opacity="1.000000" stroke-width="1.916667" stroke-linejoin="round"/>
	<path id="Vector" d="M8.05 2.6L4.11 2.6C3.27 2.6 2.47 2.93 1.88 3.52C1.29 4.11 0.95 4.91 0.95 5.75L0.95 13.63C0.95 14.47 1.29 15.27 1.88 15.86C2.47 16.45 3.27 16.78 4.11 16.78L12.78 16.78C14.52 16.78 15.14 15.36 15.14 13.63L15.14 9.69" stroke="#737373" stroke-opacity="1.000000" stroke-width="1.916667" stroke-linejoin="round" stroke-linecap="round"/>
</svg>
