<svg width="15.990234" height="17.750000" viewBox="0 0 15.9902 17.75" fill="none" xmlns="http://www.w3.org/2000/svg" xmlns:xlink="http://www.w3.org/1999/xlink">
	<desc>
			Created with Pixso.
	</desc>
	<defs/>
	<path id="Vector" d="M6.23 7.99L6.23 13.27" stroke="#737373" stroke-opacity="1.000000" stroke-width="1.916667" stroke-linejoin="round" stroke-linecap="round"/>
	<path id="Vector" d="M9.75 7.99L9.75 13.27" stroke="#737373" stroke-opacity="1.000000" stroke-width="1.916667" stroke-linejoin="round" stroke-linecap="round"/>
	<path id="Vector" d="M0.95 4.47L15.03 4.47" stroke="#737373" stroke-opacity="1.000000" stroke-width="1.916667" stroke-linejoin="round" stroke-linecap="round"/>
	<path id="Vector" d="M7.99 4.47L13.27 4.47L13.27 14.15C13.27 15.6 12.09 16.79 10.63 16.79L5.35 16.79C3.89 16.79 2.71 15.6 2.71 14.15L2.71 4.47L7.99 4.47Z" stroke="#737373" stroke-opacity="1.000000" stroke-width="1.916667" stroke-linejoin="round"/>
	<path id="Vector" d="M7.11 0.95L8.87 0.95C9.84 0.95 10.63 1.74 10.63 2.71L10.63 4.47L5.35 4.47L5.35 2.71C5.35 1.74 6.14 0.95 7.11 0.95Z" stroke="#737373" stroke-opacity="1.000000" stroke-width="1.916667" stroke-linejoin="round"/>
</svg>
