<svg width="25.500000" height="25.500000" viewBox="0 0 25.5 25.5" fill="none" xmlns="http://www.w3.org/2000/svg" xmlns:xlink="http://www.w3.org/1999/xlink">
	<desc>
			Created with Pixso.
	</desc>
	<defs/>
	<path id="Vector" d="M1.25 8.91L24.25 8.91M6.36 1.25L6.36 3.8M19.13 1.25L19.13 3.8M5.08 14.02L7.63 14.02M5.08 19.13L7.63 19.13M11.47 14.02L14.02 14.02M11.47 19.13L14.02 19.13M17.86 14.02L20.41 14.02M17.86 19.13L20.41 19.13M20.16 24.25C21.59 24.25 22.3 24.25 22.85 23.97C23.33 23.72 23.72 23.33 23.97 22.85C24.25 22.3 24.25 21.59 24.25 20.16L24.25 7.89C24.25 6.46 24.25 5.74 23.97 5.2C23.72 4.71 23.33 4.32 22.85 4.08C22.3 3.8 21.59 3.8 20.16 3.8L5.33 3.8C3.9 3.8 3.19 3.8 2.64 4.08C2.16 4.32 1.77 4.71 1.52 5.2C1.25 5.74 1.25 6.46 1.25 7.89L1.25 20.16C1.25 21.59 1.25 22.3 1.52 22.85C1.77 23.33 2.16 23.72 2.64 23.97C3.19 24.25 3.9 24.25 5.33 24.25L20.16 24.25Z" stroke="#8B8B8B" stroke-opacity="1.000000" stroke-width="2.500000" stroke-linejoin="round"/>
</svg>
