<svg width="18.977051" height="16.250000" viewBox="0 0 18.9771 16.25" fill="none" xmlns="http://www.w3.org/2000/svg" xmlns:xlink="http://www.w3.org/1999/xlink">
	<desc>
			Created with Pixso.
	</desc>
	<defs/>
	<path id="Vector" d="M14.26 3.35L13.3 1.37C13.1 0.89 12.62 0.62 12.07 0.62L6.96 0.62C6.42 0.62 5.94 0.89 5.73 1.37L4.71 3.35L1.98 3.35C1.23 3.35 0.62 3.96 0.62 4.71L0.62 14.26C0.62 15.01 1.23 15.62 1.98 15.62L16.98 15.62C17.73 15.62 18.35 15.01 18.35 14.26L18.35 4.71C18.35 3.96 17.73 3.35 16.98 3.35L14.26 3.35Z" fill="#FFFFFF" fill-opacity="0.200000" fill-rule="nonzero"/>
	<path id="Vector" d="M13.3 1.37C13.1 0.89 12.62 0.62 12.07 0.62L6.96 0.62C6.42 0.62 5.94 0.89 5.73 1.37L4.71 3.35L1.98 3.35C1.23 3.35 0.62 3.96 0.62 4.71L0.62 14.26C0.62 15.01 1.23 15.62 1.98 15.62L16.98 15.62C17.73 15.62 18.35 15.01 18.35 14.26L18.35 4.71C18.35 3.96 17.73 3.35 16.98 3.35L14.26 3.35L13.3 1.37Z" stroke="#FFFFFF" stroke-opacity="1.000000" stroke-width="1.250000" stroke-linejoin="round"/>
	<path id="Vector" d="M9.48 12.89C7.22 12.89 5.39 11.06 5.39 8.8C5.39 6.54 7.22 4.71 9.48 4.71C11.74 4.71 13.57 6.54 13.57 8.8C13.57 11.06 11.74 12.89 9.48 12.89Z" stroke="#FFFFFF" stroke-opacity="1.000000" stroke-width="1.250000" stroke-linejoin="round"/>
	<path id="Vector" d="M2.67 5.39L4.03 5.39" stroke="#FFFFFF" stroke-opacity="1.000000" stroke-width="1.250000" stroke-linejoin="round" stroke-linecap="round"/>
</svg>
