<svg width="35.833496" height="35.833984" viewBox="0 0 35.8335 35.834" fill="none" xmlns="http://www.w3.org/2000/svg" xmlns:xlink="http://www.w3.org/1999/xlink">
	<desc>
			Created with Pixso.
	</desc>
	<defs/>
	<path id="Vector" d="M35.83 17.91C35.83 22.66 33.94 27.22 30.58 30.58C27.22 33.94 22.66 35.83 17.91 35.83C13.16 35.83 8.6 33.94 5.24 30.58C1.88 27.22 0 22.66 0 17.91C0 8.02 8.02 0 17.91 0C27.81 0 35.83 8.02 35.83 17.91Z" fill="#E7E7E7" fill-opacity="1.000000" fill-rule="nonzero"/>
	<path id="Vector" d="M25.23 11.55C25.23 15.59 21.95 18.87 17.91 18.87C13.87 18.87 10.59 15.59 10.59 11.55C10.59 7.51 13.87 4.23 17.91 4.23C21.95 4.23 25.23 7.51 25.23 11.55Z" fill="#B0B6B7" fill-opacity="1.000000" fill-rule="evenodd"/>
	<path id="Vector" d="M30.24 28.82C30.1 28.98 29.95 29.14 29.8 29.3C28.27 30.9 26.42 32.18 24.38 33.05C22.33 33.93 20.13 34.38 17.91 34.38C15.69 34.38 13.49 33.93 11.45 33.05C9.4 32.18 7.56 30.9 6.02 29.3C5.87 29.14 5.72 28.98 5.58 28.82C5.58 25.78 6.64 22.18 9.52 20.3C10.82 19.44 12.52 19.5 13.77 20.42C14.74 21.13 15.98 21.57 17.91 21.57C19.85 21.57 21.09 21.13 22.05 20.42C23.31 19.51 25.01 19.45 26.31 20.3C29.18 22.18 30.24 25.78 30.24 28.82Z" fill="#B0B6B7" fill-opacity="1.000000" fill-rule="nonzero"/>
</svg>
