<svg width="43.958496" height="43.957031" viewBox="0 0 43.9585 43.957" fill="none" xmlns="http://www.w3.org/2000/svg" xmlns:xlink="http://www.w3.org/1999/xlink">
	<desc>
			Created with Pixso.
	</desc>
	<defs/>
	<g opacity="0.500000">
		<path id="Vector" d="M32.39 15.73C36.92 15.75 39.38 15.95 40.98 17.55C42.81 19.39 42.81 22.33 42.81 28.22L42.81 30.31C42.81 36.2 42.81 39.15 40.98 40.98C39.15 42.81 36.2 42.81 30.31 42.81L13.64 42.81C7.75 42.81 4.8 42.81 2.97 40.98C1.14 39.15 1.14 36.2 1.14 30.31L1.14 28.22C1.14 22.33 1.14 19.39 2.97 17.55C4.57 15.95 7.03 15.75 11.56 15.73" stroke="#ACACAC" stroke-opacity="1.000000" stroke-width="2.291667" stroke-linecap="round"/>
	</g>
	<path id="Vector" d="M21.97 28.23L21.97 1.14M15.72 8.43L21.97 1.14L28.22 8.43" stroke="#868686" stroke-opacity="1.000000" stroke-width="2.291667" stroke-linejoin="round"/>
</svg>
