<svg width="27.500000" height="27.500000" viewBox="0 0 27.5 27.5" fill="none" xmlns="http://www.w3.org/2000/svg" xmlns:xlink="http://www.w3.org/1999/xlink">
	<desc>
			Created with Pixso.
	</desc>
	<defs>
		<radialGradient gradientTransform="translate(9.82143 20.625) rotate(-55.3758) scale(25.0639 25.0639)" cx="0.000000" cy="0.000000" r="1.000000" id="paint_radial_4167_6879_0" gradientUnits="userSpaceOnUse">
			<stop stop-color="#B13589"/>
			<stop offset="0.793090" stop-color="#C62F94"/>
			<stop offset="1.000000" stop-color="#8A3AC8"/>
		</radialGradient>
		<radialGradient gradientTransform="translate(8.83928 28.4821) rotate(-65.1363) scale(22.1907 22.1907)" cx="0.000000" cy="0.000000" r="1.000000" id="paint_radial_4167_6880_0" gradientUnits="userSpaceOnUse">
			<stop stop-color="#E0E8B7"/>
			<stop offset="0.444662" stop-color="#FB8A2E"/>
			<stop offset="0.714740" stop-color="#E2425C"/>
			<stop offset="1.000000" stop-color="#E2425C" stop-opacity="0.000000"/>
		</radialGradient>
		<radialGradient gradientTransform="translate(-1.47321 0.98214) rotate(-8.13009) scale(38.1964 8.16982)" cx="0.000000" cy="0.000000" r="1.000000" id="paint_radial_4167_6881_0" gradientUnits="userSpaceOnUse">
			<stop offset="0.156701" stop-color="#406ADC"/>
			<stop offset="0.467799" stop-color="#6A45BE"/>
			<stop offset="1.000000" stop-color="#6A45BE" stop-opacity="0.000000"/>
		</radialGradient>
	</defs>
	<path id="Vector" d="M5.89 0L21.6 0C24.86 0 27.5 2.63 27.5 5.89L27.5 21.6C27.5 24.86 24.86 27.5 21.6 27.5L5.89 27.5C2.63 27.5 0 24.86 0 21.6L0 5.89C0 2.63 2.63 0 5.89 0Z" fill="url(#paint_radial_4167_6879_0)" fill-opacity="1.000000" fill-rule="evenodd"/>
	<path id="Vector" d="M5.89 0L21.6 0C24.86 0 27.5 2.63 27.5 5.89L27.5 21.6C27.5 24.86 24.86 27.5 21.6 27.5L5.89 27.5C2.63 27.5 0 24.86 0 21.6L0 5.89C0 2.63 2.63 0 5.89 0Z" fill="url(#paint_radial_4167_6880_0)" fill-opacity="1.000000" fill-rule="evenodd"/>
	<path id="Vector" d="M5.89 0L21.6 0C24.86 0 27.5 2.63 27.5 5.89L27.5 21.6C27.5 24.86 24.86 27.5 21.6 27.5L5.89 27.5C2.63 27.5 0 24.86 0 21.6L0 5.89C0 2.63 2.63 0 5.89 0Z" fill="url(#paint_radial_4167_6881_0)" fill-opacity="1.000000" fill-rule="evenodd"/>
	<path id="Vector" d="M20.62 8.34C20.62 9.16 19.96 9.82 19.15 9.82C18.33 9.82 17.67 9.16 17.67 8.34C17.67 7.53 18.33 6.87 19.15 6.87C19.96 6.87 20.62 7.53 20.62 8.34Z" fill="#FFFFFF" fill-opacity="1.000000" fill-rule="nonzero"/>
	<path id="Vector" d="M13.75 18.66C16.46 18.66 18.66 16.46 18.66 13.75C18.66 11.03 16.46 8.83 13.75 8.83C11.03 8.83 8.83 11.03 8.83 13.75C8.83 16.46 11.03 18.66 13.75 18.66ZM13.75 16.69C15.37 16.69 16.69 15.37 16.69 13.75C16.69 12.12 15.37 10.8 13.75 10.8C12.12 10.8 10.8 12.12 10.8 13.75C10.8 15.37 12.12 16.69 13.75 16.69Z" fill="#FFFFFF" fill-opacity="1.000000" fill-rule="evenodd"/>
	<path id="Vector" d="M3.92 13.35C3.92 10.05 3.92 8.4 4.57 7.14C5.13 6.03 6.03 5.13 7.14 4.57C8.4 3.92 10.05 3.92 13.35 3.92L14.14 3.92C17.44 3.92 19.09 3.92 20.35 4.57C21.46 5.13 22.36 6.03 22.92 7.14C23.57 8.4 23.57 10.05 23.57 13.35L23.57 14.14C23.57 17.44 23.57 19.09 22.92 20.35C22.36 21.46 21.46 22.36 20.35 22.92C19.09 23.57 17.44 23.57 14.14 23.57L13.35 23.57C10.05 23.57 8.4 23.57 7.14 22.92C6.03 22.36 5.13 21.46 4.57 20.35C3.92 19.09 3.92 17.44 3.92 14.14L3.92 13.35ZM13.35 5.89L14.14 5.89C15.82 5.89 16.96 5.89 17.85 5.96C18.71 6.03 19.15 6.16 19.46 6.32C20.2 6.69 20.8 7.29 21.17 8.03C21.33 8.34 21.46 8.78 21.53 9.64C21.6 10.53 21.6 11.67 21.6 13.35L21.6 14.14C21.6 15.82 21.6 16.97 21.53 17.85C21.46 18.71 21.33 19.15 21.17 19.46C20.8 20.2 20.2 20.8 19.46 21.17C19.15 21.33 18.71 21.46 17.85 21.53C16.96 21.6 15.82 21.6 14.14 21.6L13.35 21.6C11.67 21.6 10.53 21.6 9.64 21.53C8.78 21.46 8.34 21.33 8.03 21.17C7.29 20.8 6.69 20.2 6.32 19.46C6.16 19.15 6.03 18.71 5.96 17.85C5.89 16.97 5.89 15.82 5.89 14.14L5.89 13.35C5.89 11.67 5.89 10.53 5.96 9.64C6.03 8.78 6.16 8.34 6.32 8.03C6.69 7.29 7.29 6.69 8.03 6.32C8.34 6.16 8.78 6.03 9.64 5.96C10.53 5.89 11.67 5.89 13.35 5.89Z" fill="#FFFFFF" fill-opacity="1.000000" fill-rule="evenodd"/>
</svg>
