<svg width="27.500000" height="27.500000" viewBox="0 0 27.5 27.5" fill="none" xmlns="http://www.w3.org/2000/svg" xmlns:xlink="http://www.w3.org/1999/xlink">
	<desc>
			Created with Pixso.
	</desc>
	<defs/>
	<path id="Vector" d="M27.5 13.75C27.5 21.34 21.34 27.5 13.75 27.5C6.15 27.5 0 21.34 0 13.75C0 6.15 6.15 0 13.75 0C21.34 0 27.5 6.15 27.5 13.75Z" fill="#0077B5" fill-opacity="1.000000" fill-rule="evenodd"/>
	<path id="Vector" d="M10.15 7.07C10.15 7.92 9.5 8.61 8.48 8.61C7.5 8.61 6.85 7.92 6.87 7.07C6.85 6.17 7.5 5.5 8.5 5.5C9.5 5.5 10.13 6.17 10.15 7.07ZM6.95 19.81L6.95 9.84L10.05 9.84L10.05 19.81L6.95 19.81Z" fill="#FFFFFF" fill-opacity="1.000000" fill-rule="evenodd"/>
	<path id="Vector" d="M12.54 13.02C12.54 11.77 12.49 10.71 12.45 9.84L15.14 9.84L15.29 11.2L15.35 11.2C15.76 10.57 16.78 9.61 18.43 9.61C20.47 9.61 22 10.96 22 13.9L22 19.81L18.9 19.81L18.9 14.28C18.9 13 18.45 12.12 17.33 12.12C16.47 12.12 15.96 12.71 15.76 13.28C15.68 13.49 15.63 13.77 15.63 14.06L15.63 19.81L12.54 19.81L12.54 13.02L12.54 13.02Z" fill="#FFFFFF" fill-opacity="1.000000" fill-rule="evenodd"/>
</svg>
