<svg width="13.609863" height="13.333984" viewBox="0 0 13.6099 13.334" fill="none" xmlns="http://www.w3.org/2000/svg" xmlns:xlink="http://www.w3.org/1999/xlink">
	<desc>
			Created with Pixso.
	</desc>
	<defs/>
	<path id="Vector" d="M11.39 5.89L3.19 5.89C2.76 5.89 2.42 6.24 2.42 6.66C2.42 7.09 2.76 7.43 3.19 7.43L11.41 7.43L9.82 9.03C9.52 9.33 9.52 9.82 9.82 10.12C10.12 10.42 10.6 10.42 10.9 10.12C10.9 10.12 12.22 8.8 13.08 7.94C13.78 7.24 13.78 6.1 13.08 5.4L10.9 3.23C10.6 2.93 10.12 2.93 9.82 3.23C9.52 3.53 9.52 4.01 9.82 4.31L11.39 5.89Z" fill="#252525" fill-opacity="1.000000" fill-rule="evenodd"/>
	<path id="Vector" d="M8.71 10.76L8.71 8.46L3.19 8.46C2.2 8.46 1.39 7.65 1.39 6.66C1.39 5.67 2.2 4.87 3.19 4.87L8.71 4.87L8.71 2.56C8.71 1.14 7.56 0 6.15 0C5.04 0 3.67 0 2.56 0C1.88 0 1.23 0.26 0.75 0.75C0.27 1.23 0 1.88 0 2.56C0 4.83 0 8.49 0 10.76C0 11.44 0.27 12.1 0.75 12.58C1.23 13.06 1.88 13.33 2.56 13.33C3.67 13.33 5.04 13.33 6.15 13.33C6.83 13.33 7.48 13.06 7.96 12.58C8.44 12.1 8.71 11.44 8.71 10.76Z" fill="#252525" fill-opacity="1.000000" fill-rule="evenodd"/>
</svg>
