<svg width="40.000000" height="40.000000" viewBox="0 0 40 40" fill="none" xmlns="http://www.w3.org/2000/svg" xmlns:xlink="http://www.w3.org/1999/xlink">
	<desc>
			Created with Pixso.
	</desc>
	<defs/>
	<path id="Rectangle 18" d="M0 0L30 0C35.52 0 40 4.47 40 10L40 30C40 35.52 35.52 40 30 40L0 40L0 0Z" fill="#FF0000" fill-opacity="1.000000" fill-rule="evenodd"/>
	<path id="Arrow 2" d="M19 19.2L15.59 15.79C15.25 15.45 15.25 14.92 15.59 14.59C15.92 14.25 16.45 14.25 16.79 14.59L21.6 19.39C21.93 19.73 21.93 20.26 21.6 20.6L16.79 25.4C16.45 25.74 15.92 25.74 15.59 25.4C15.25 25.07 15.25 24.54 15.59 24.2L19 20.79L19 19.2Z" fill="#FFFFFF" fill-opacity="1.000000" fill-rule="evenodd"/>
</svg>
