<svg width="21.937012" height="20.212891" viewBox="0 0 21.937 20.2129" fill="none" xmlns="http://www.w3.org/2000/svg" xmlns:xlink="http://www.w3.org/1999/xlink">
	<desc>
			Created with Pixso.
	</desc>
	<defs/>
	<path id="vector" d="M14.66 3.56C13.48 3.11 12.24 2.88 10.96 2.88C7.39 2.88 4.05 4.73 1.73 7.93C0.82 9.19 0.82 11.3 1.73 12.56C2.19 13.19 2.69 13.78 3.23 14.3M18.38 5.89C19.04 6.49 19.64 7.18 20.19 7.93C21.11 9.19 21.11 11.3 20.19 12.56C17.87 15.76 14.54 17.62 10.96 17.62C9.56 17.62 8.19 17.33 6.91 16.79" stroke="#7D7D7D" stroke-opacity="1.000000" stroke-width="1.666667" stroke-linejoin="round"/>
	<path id="vector_2" d="M14 10.25C14 11.93 12.64 13.29 10.96 13.29M13.09 8.08C12.54 7.54 11.79 7.21 10.96 7.21C9.28 7.21 7.92 8.57 7.92 10.25C7.92 10.99 8.19 11.67 8.62 12.19" stroke="#7D7D7D" stroke-opacity="1.000000" stroke-width="1.666667" stroke-linejoin="round"/>
	<path id="vector_3" d="M0.83 19.37L21.1 0.83" stroke="#7D7D7D" stroke-opacity="1.000000" stroke-width="1.666667" stroke-linecap="round"/>
</svg>
