<svg width="21.494629" height="16.408203" viewBox="0 0 21.4946 16.4082" fill="none" xmlns="http://www.w3.org/2000/svg" xmlns:xlink="http://www.w3.org/1999/xlink">
	<desc>
			Created with Pixso.
	</desc>
	<defs/>
	<path id="vector" d="M10.74 11.25C9.06 11.25 7.7 9.89 7.7 8.2C7.7 6.52 9.06 5.16 10.74 5.16C12.42 5.16 13.78 6.52 13.78 8.2C13.78 9.89 12.42 11.25 10.74 11.25Z" stroke="#7D7D7D" stroke-opacity="1.000000" stroke-width="1.666667" stroke-linejoin="round"/>
	<path id="vector_2" d="M19.97 10.51C20.88 9.25 20.88 7.14 19.97 5.89C17.65 2.68 14.32 0.83 10.74 0.83C7.17 0.83 3.83 2.68 1.51 5.89C0.6 7.14 0.6 9.25 1.51 10.51C3.83 13.72 7.17 15.57 10.74 15.57C14.32 15.57 17.65 13.72 19.97 10.51Z" stroke="#7D7D7D" stroke-opacity="1.000000" stroke-width="1.666667" stroke-linejoin="round"/>
</svg>
