<svg width="12.500000" height="11.666016" viewBox="0 0 12.5 11.666" fill="none" xmlns="http://www.w3.org/2000/svg" xmlns:xlink="http://www.w3.org/1999/xlink">
	<desc>
			Created with Pixso.
	</desc>
	<defs/>
	<path id="Vector" d="M6.25 11.66C9.7 11.66 12.5 9.05 12.5 5.83C12.5 4.64 12.11 3.53 11.46 2.61L6.49 7.77C6.01 8.26 5.2 8.34 4.63 7.94L2.36 6.35C2.05 6.13 1.99 5.73 2.22 5.44C2.45 5.15 2.88 5.09 3.19 5.31L5.46 6.9L10.56 1.61C9.44 0.61 7.92 0 6.25 0C2.79 0 0 2.61 0 5.83C0 9.05 2.79 11.66 6.25 11.66Z" fill="#00C12B" fill-opacity="1.000000" fill-rule="evenodd"/>
</svg>
