<svg width="14.166504" height="16.666016" viewBox="0 0 14.1665 16.666" fill="none" xmlns="http://www.w3.org/2000/svg" xmlns:xlink="http://www.w3.org/1999/xlink">
	<desc>
			Created with Pixso.
	</desc>
	<defs/>
	<path id="Vector" d="M8.58 2.77C8.58 1.24 9.83 0 11.37 0C12.91 0 14.16 1.24 14.16 2.77C14.16 4.31 12.91 5.55 11.37 5.55C10.59 5.55 9.89 5.23 9.38 4.72L5.52 7.35C5.56 7.53 5.58 7.71 5.58 7.9C5.58 8.27 5.5 8.63 5.37 8.95L9.61 11.73C10.09 11.34 10.7 11.11 11.37 11.11C12.91 11.11 14.16 12.35 14.16 13.88C14.16 15.42 12.91 16.66 11.37 16.66C9.83 16.66 8.58 15.42 8.58 13.88C8.58 13.48 8.67 13.1 8.82 12.75L4.62 9.99C4.13 10.42 3.49 10.68 2.79 10.68C1.24 10.68 0 9.43 0 7.9C0 6.37 1.24 5.12 2.79 5.12C3.67 5.12 4.46 5.53 4.97 6.17L8.71 3.63C8.63 3.36 8.58 3.07 8.58 2.77Z" fill="#D20000" fill-opacity="1.000000" fill-rule="evenodd"/>
</svg>
