<svg width="24.246094" height="29.166016" viewBox="0 0 24.2461 29.166" fill="none" xmlns="http://www.w3.org/2000/svg" xmlns:xlink="http://www.w3.org/1999/xlink">
	<desc>
			Created with Pixso.
	</desc>
	<defs/>
	<path id="Vector" d="M3.3 18.49L3.37 18.68C3.36 18.66 3.33 18.59 3.3 18.49ZM6.1 13.95C6.23 12.87 6.65 12.27 7.45 11.66C8.59 10.82 10.01 11.29 10.01 11.29L10.01 8.49C10.36 8.48 10.7 8.5 11.05 8.55L11.05 12.16C11.05 12.16 9.62 11.69 8.48 12.52C7.69 13.14 7.26 13.74 7.14 14.82C7.14 15.4 7.24 16.17 7.72 16.83C7.6 16.76 7.48 16.69 7.36 16.61C6.29 15.86 6.1 14.74 6.1 13.95ZM16.92 3.3C16.14 2.41 15.84 1.5 15.74 0.86L16.72 0.86C16.72 0.86 16.53 2.53 17.96 4.17L17.98 4.19C17.59 3.94 17.24 3.64 16.92 3.3ZM21.67 5.84L21.67 9.38C21.67 9.38 20.42 9.33 19.49 9.08C18.18 8.74 17.35 8.2 17.35 8.2C17.35 8.2 16.77 7.83 16.73 7.8L16.73 15.1C16.73 15.51 16.62 16.53 16.29 17.37C15.87 18.48 15.21 19.21 15.09 19.36C15.09 19.36 14.29 20.34 12.89 21C11.62 21.6 10.51 21.58 10.17 21.6C10.17 21.6 8.25 21.68 6.52 20.5C6.14 20.25 5.79 19.95 5.47 19.63L5.48 19.64C7.21 20.81 9.14 20.73 9.14 20.73C9.47 20.72 10.58 20.73 11.85 20.13C13.26 19.47 14.06 18.49 14.06 18.49C14.17 18.34 14.83 17.61 15.26 16.5C15.58 15.66 15.69 14.64 15.69 14.24L15.69 6.93C15.74 6.96 16.31 7.34 16.31 7.34C16.31 7.34 17.15 7.87 18.45 8.21C19.38 8.46 20.64 8.51 20.64 8.51L20.64 5.74C21.07 5.84 21.44 5.87 21.67 5.84Z" fill="#EE1D52" fill-opacity="1.000000" fill-rule="nonzero"/>
	<path id="Vector" d="M20.64 5.74L20.64 8.51C20.64 8.51 19.38 8.46 18.45 8.21C17.15 7.87 16.31 7.33 16.31 7.33C16.31 7.33 15.74 6.96 15.69 6.93L15.69 14.24C15.69 14.64 15.58 15.66 15.26 16.5C14.83 17.61 14.18 18.34 14.06 18.49C14.06 18.49 13.26 19.47 11.85 20.14C10.58 20.73 9.47 20.72 9.14 20.73C9.14 20.73 7.21 20.81 5.48 19.64L5.47 19.63C5.29 19.45 5.12 19.25 4.96 19.05C4.4 18.34 4.07 17.51 3.98 17.27C3.98 17.27 3.98 17.27 3.98 17.27C3.84 16.86 3.56 15.87 3.59 14.91C3.66 13.22 4.24 12.18 4.39 11.92C4.78 11.21 5.3 10.58 5.92 10.04C6.47 9.58 7.08 9.22 7.75 8.96C8.46 8.66 9.23 8.5 10.01 8.49L10.01 11.29C10.01 11.29 8.59 10.82 7.45 11.66C6.65 12.27 6.23 12.87 6.1 13.95C6.1 14.74 6.29 15.86 7.36 16.61C7.48 16.69 7.6 16.76 7.72 16.83C7.91 17.08 8.14 17.3 8.39 17.48C9.43 18.16 10.3 18.21 11.42 17.77C12.16 17.47 12.72 16.8 12.98 16.05C13.14 15.58 13.14 15.12 13.14 14.63L13.14 0.86L15.73 0.86C15.84 1.5 16.14 2.41 16.92 3.3C17.24 3.64 17.59 3.94 17.98 4.19C18.09 4.32 18.67 4.92 19.42 5.3C19.81 5.49 20.22 5.64 20.64 5.74Z" fill="#000000" fill-opacity="1.000000" fill-rule="nonzero"/>
	<path id="Vector" d="M2.95 16.41L2.95 16.42L3.01 16.6C3.01 16.58 2.98 16.51 2.95 16.41Z" fill="#69C9D0" fill-opacity="1.000000" fill-rule="nonzero"/>
	<path id="Vector" d="M7.75 8.96C7.08 9.22 6.47 9.59 5.92 10.04C5.31 10.58 4.79 11.21 4.39 11.92C4.24 12.18 3.66 13.22 3.6 14.91C3.56 15.87 3.84 16.86 3.98 17.28C3.98 17.28 3.98 17.28 3.98 17.28C4.07 17.51 4.41 18.35 4.96 19.05C5.12 19.26 5.29 19.45 5.47 19.64C4.89 19.23 4.37 18.74 3.92 18.18C3.38 17.49 3.04 16.66 2.95 16.42C2.95 16.42 2.95 16.42 2.95 16.41L2.95 16.41C2.81 16 2.52 15.01 2.56 14.05C2.63 12.36 3.2 11.32 3.35 11.06C3.75 10.35 4.27 9.71 4.89 9.18C5.43 8.72 6.05 8.35 6.71 8.1C7.13 7.92 7.56 7.8 8 7.72C8.67 7.6 9.34 7.59 10.01 7.69L10.01 8.49C9.24 8.5 8.47 8.66 7.75 8.96Z" fill="#69C9D0" fill-opacity="1.000000" fill-rule="nonzero"/>
	<path id="Vector" d="M15.74 0.86L13.15 0.86L13.15 14.63C13.15 15.12 13.15 15.58 12.98 16.05C12.72 16.8 12.16 17.47 11.42 17.77C10.31 18.21 9.44 18.16 8.4 17.48C8.14 17.3 7.91 17.08 7.73 16.83C8.61 17.3 9.4 17.29 10.39 16.9C11.13 16.6 11.69 15.93 11.95 15.18C12.11 14.72 12.11 14.25 12.11 13.77L12.11 0L15.69 0C15.69 0 15.65 0.34 15.74 0.86ZM20.64 4.97L20.64 5.74C20.22 5.64 19.81 5.49 19.43 5.3C18.68 4.92 18.09 4.32 17.98 4.19C18.11 4.28 18.25 4.36 18.39 4.43C19.3 4.88 20.2 5.02 20.64 4.97Z" fill="#69C9D0" fill-opacity="1.000000" fill-rule="nonzero"/>
	<path id="Vector" d="M15.83 26.98C15.83 27.08 15.84 27.17 15.87 27.27C15.87 27.27 15.87 27.28 15.87 27.29C15.94 27.51 16.08 27.7 16.27 27.84C16.46 27.98 16.68 28.06 16.92 28.06L16.92 29.16C16.38 29.16 16 29.18 15.41 28.83C14.74 28.44 14.36 27.71 14.36 26.96C14.36 26.19 14.78 25.41 15.5 25.04C16.01 24.76 16.41 24.76 16.92 24.76L16.92 25.87C16.63 25.87 16.35 25.98 16.15 26.19C15.94 26.39 15.83 26.67 15.83 26.96L15.83 26.98Z" fill="#69C9D0" fill-opacity="1.000000" fill-rule="nonzero"/>
	<path id="Vector" d="M18.02 26.98C18.02 27.08 18.01 27.17 17.98 27.27C17.98 27.27 17.98 27.28 17.97 27.29C17.9 27.51 17.76 27.7 17.58 27.84C17.39 27.98 17.16 28.06 16.93 28.06L16.93 29.16C17.47 29.16 17.85 29.18 18.44 28.83C19.11 28.44 19.49 27.71 19.49 26.96C19.49 26.19 19.07 25.41 18.35 25.04C17.83 24.76 17.44 24.76 16.93 24.76L16.93 25.87C17.22 25.87 17.5 25.98 17.7 26.19C17.91 26.39 18.02 26.67 18.02 26.96L18.02 26.98Z" fill="#EE1D52" fill-opacity="1.000000" fill-rule="nonzero"/>
	<path id="Vector" d="M0 23.76L4.05 23.76L3.67 24.87L2.61 24.87L2.61 29.14L1.31 29.14L1.31 24.87L0 24.87L0 23.76ZM10.73 23.76L10.73 24.87L12.04 24.87L12.04 29.14L13.34 29.14L13.34 24.87L14.4 24.87L14.78 23.76L10.73 23.76ZM4.93 25.03C5.05 25.03 5.17 24.99 5.28 24.92C5.38 24.85 5.46 24.76 5.51 24.64C5.56 24.52 5.57 24.4 5.54 24.28C5.52 24.15 5.46 24.04 5.37 23.95C5.28 23.86 5.17 23.81 5.05 23.78C4.93 23.76 4.8 23.77 4.68 23.82C4.57 23.86 4.47 23.95 4.4 24.05C4.33 24.15 4.29 24.27 4.3 24.4C4.3 24.48 4.31 24.57 4.34 24.64C4.37 24.72 4.42 24.79 4.48 24.85C4.54 24.91 4.61 24.95 4.68 24.98C4.76 25.01 4.84 25.03 4.93 25.03ZM4.3 29.14L5.57 29.14L5.57 25.48L4.3 25.48L4.3 29.14ZM10.17 25L8.68 25L7.39 26.29L7.39 23.76L6.12 23.76L6.11 29.14L7.4 29.14L7.4 27.74L7.8 27.38L9.04 29.14L10.41 29.14L8.61 26.56L10.17 25ZM22.44 26.56L24 25L22.5 25L21.22 26.29L21.22 23.76L19.95 23.76L19.94 29.14L21.22 29.14L21.22 27.74L21.63 27.38L22.87 29.14L24.24 29.14L22.44 26.56ZM19.15 26.96C19.15 28.18 18.15 29.16 16.92 29.16C15.69 29.16 14.69 28.18 14.69 26.96C14.69 25.75 15.69 24.76 16.92 24.76C18.15 24.76 19.15 25.75 19.15 26.96L19.15 26.96ZM18.01 26.96C18.01 26.75 17.95 26.53 17.83 26.35C17.71 26.17 17.54 26.03 17.34 25.95C17.14 25.87 16.92 25.85 16.71 25.89C16.5 25.93 16.3 26.04 16.15 26.19C16 26.34 15.89 26.54 15.85 26.75C15.81 26.96 15.83 27.18 15.91 27.38C15.99 27.58 16.13 27.75 16.31 27.87C16.49 27.99 16.7 28.06 16.92 28.06C17.21 28.06 17.49 27.94 17.69 27.74C17.9 27.53 18.01 27.25 18.01 26.96L18.01 26.96Z" fill="#000000" fill-opacity="1.000000" fill-rule="nonzero"/>
</svg>
