<svg width="29.166016" height="29.166016" viewBox="0 0 29.166 29.166" fill="none" xmlns="http://www.w3.org/2000/svg" xmlns:xlink="http://www.w3.org/1999/xlink">
	<desc>
			Created with Pixso.
	</desc>
	<defs/>
	<path id="Vector" d="M29.16 14.58C29.16 22.63 22.63 29.16 14.58 29.16C6.52 29.16 0 22.63 0 14.58C0 6.52 6.52 0 14.58 0C22.63 0 29.16 6.52 29.16 14.58Z" fill="#1DA1F2" fill-opacity="1.000000" fill-rule="evenodd"/>
	<path id="Vector" d="M23.33 8.97C22.68 9.26 21.99 9.45 21.26 9.54C22.01 9.09 22.58 8.39 22.84 7.55C22.15 7.96 21.38 8.26 20.56 8.42C19.91 7.72 18.98 7.29 17.94 7.29C15.96 7.29 14.35 8.9 14.35 10.88C14.35 11.16 14.39 11.43 14.45 11.7C11.46 11.55 8.82 10.12 7.05 7.95C6.74 8.48 6.56 9.09 6.56 9.75C6.56 11 7.19 12.09 8.16 12.74C7.57 12.72 7.01 12.56 6.53 12.29L6.53 12.33C6.53 14.07 7.77 15.52 9.41 15.86C9.11 15.94 8.79 15.98 8.46 15.98C8.23 15.98 8.01 15.96 7.79 15.92C8.25 17.34 9.57 18.38 11.14 18.41C9.91 19.37 8.37 19.95 6.68 19.95C6.39 19.95 6.11 19.93 5.83 19.9C7.42 20.91 9.3 21.51 11.33 21.51C17.93 21.51 21.55 16.04 21.55 11.3C21.55 11.14 21.54 10.99 21.53 10.83C22.24 10.32 22.85 9.69 23.33 8.97Z" fill="#FFFFFF" fill-opacity="1.000000" fill-rule="evenodd"/>
</svg>
