<svg width="22.194336" height="22.195312" viewBox="0 0 22.1943 22.1953" fill="none" xmlns="http://www.w3.org/2000/svg" xmlns:xlink="http://www.w3.org/1999/xlink">
	<desc>
			Created with Pixso.
	</desc>
	<defs/>
	<circle id="Ellipse 12" cx="11.097168" cy="11.097656" r="11.097222" fill="#252525" fill-opacity="1.000000"/>
	<path id="Vector" d="M14.18 8.18L13.6 6.98C13.47 6.69 13.18 6.52 12.85 6.52L9.73 6.52C9.4 6.52 9.11 6.69 8.99 6.98L8.36 8.18L6.7 8.18C6.24 8.18 5.87 8.56 5.87 9.01L5.87 14.83C5.87 15.29 6.24 15.66 6.7 15.66L15.84 15.66C16.3 15.66 16.67 15.29 16.67 14.83L16.67 9.01C16.67 8.56 16.3 8.18 15.84 8.18L14.18 8.18Z" fill="#FFFFFF" fill-opacity="1.000000" fill-rule="nonzero"/>
	<path id="Vector" d="M13.6 6.98C13.47 6.69 13.18 6.52 12.85 6.52L9.73 6.52C9.4 6.52 9.11 6.69 8.99 6.98L8.36 8.18L6.7 8.18C6.24 8.18 5.87 8.56 5.87 9.01L5.87 14.83C5.87 15.29 6.24 15.66 6.7 15.66L15.84 15.66C16.3 15.66 16.67 15.29 16.67 14.83L16.67 9.01C16.67 8.56 16.3 8.18 15.84 8.18L14.18 8.18L13.6 6.98Z" stroke="#FFFFFF" stroke-opacity="1.000000" stroke-width="0.761574" stroke-linejoin="round"/>
	<path id="Vector" d="M11.27 14C12.65 14 13.76 12.88 13.76 11.51C13.76 10.13 12.65 9.01 11.27 9.01C9.89 9.01 8.78 10.13 8.78 11.51C8.78 12.88 9.89 14 11.27 14Z" fill="#000000" fill-opacity="1.000000" fill-rule="nonzero"/>
	<path id="Vector" d="M11.27 14C9.89 14 8.78 12.88 8.78 11.51C8.78 10.13 9.89 9.01 11.27 9.01C12.65 9.01 13.76 10.13 13.76 11.51C13.76 12.88 12.65 14 11.27 14Z" stroke="#FFFFFF" stroke-opacity="1.000000" stroke-width="0.761574" stroke-linejoin="round"/>
	<path id="Vector" d="M7.12 9.43L7.95 9.43" stroke="#000000" stroke-opacity="1.000000" stroke-width="0.761574" stroke-linejoin="round" stroke-linecap="round"/>
</svg>
