<svg width="70.000000" height="70.000000" viewBox="0 0 70 70" fill="none" xmlns="http://www.w3.org/2000/svg" xmlns:xlink="http://www.w3.org/1999/xlink">
	<desc>
			Created with Pixso.
	</desc>
	<defs/>
	<path id="zoom" d="M54.62 13.12L43.75 13.12C42.54 13.12 41.56 14.1 41.56 15.31C41.56 16.52 42.54 17.5 43.75 17.5L49.49 17.5L39 27.99L42.09 31.09L52.54 20.63L52.5 26.25C52.5 27.45 53.48 28.43 54.68 28.43C55.89 28.43 56.87 27.45 56.87 26.25L56.87 15.31C56.87 14.66 56.6 14.14 56.18 13.78C55.78 13.37 55.23 13.12 54.62 13.12ZM65.62 61.25C65.62 63.65 63.66 65.62 61.25 65.62L8.75 65.62C6.33 65.62 4.37 63.65 4.37 61.25L4.37 8.75C4.37 6.33 6.33 4.37 8.75 4.37L61.25 4.37C63.66 4.37 65.62 6.33 65.62 8.75L65.62 61.25ZM61.25 0L8.75 0C3.91 0 0 3.91 0 8.75L0 61.25C0 66.08 3.91 70 8.75 70L61.25 70C66.08 70 70 66.08 70 61.25L70 8.75C70 3.91 66.08 0 61.25 0ZM27.9 38.91L17.45 49.37L17.5 43.75C17.5 42.54 16.52 41.56 15.31 41.56C14.1 41.56 13.12 42.54 13.12 43.75L13.12 54.68C13.12 55.34 13.39 55.86 13.81 56.21C14.21 56.61 14.76 56.87 15.37 56.87L26.25 56.87C27.45 56.87 28.43 55.89 28.43 54.68C28.43 53.48 27.45 52.5 26.25 52.5L20.5 52.5L30.99 42L27.9 38.91ZM54.68 41.56C53.48 41.56 52.5 42.54 52.5 43.75L52.54 49.37L42.09 38.91L39 42L49.49 52.5L43.75 52.5C42.54 52.5 41.56 53.48 41.56 54.68C41.56 55.89 42.54 56.87 43.75 56.87L54.62 56.87C55.23 56.87 55.78 56.61 56.18 56.21C56.6 55.86 56.87 55.34 56.87 54.68L56.87 43.75C56.87 42.54 55.89 41.56 54.68 41.56ZM26.25 17.5C27.45 17.5 28.43 16.52 28.43 15.31C28.43 14.1 27.45 13.12 26.25 13.12L15.37 13.12C14.76 13.12 14.21 13.37 13.81 13.78C13.39 14.14 13.12 14.66 13.12 15.31L13.12 26.25C13.12 27.45 14.1 28.43 15.31 28.43C16.52 28.43 17.5 27.45 17.5 26.25L17.45 20.63L27.9 31.09L30.99 27.99L20.5 17.5L26.25 17.5Z" fill="#FCFCFC" fill-opacity="0.900000" fill-rule="evenodd"/>
</svg>
